PathFileType	4	(X/Y/Z)	C:/Users/opensim2020/Desktop/walking_exp_matlab/subject06_walking20_straight_02.trc	
DataRate	CameraRate	NumFrames	NumMarkers	Units	OrigDataRate	OrigDataStartFrame	OrigNumFrames	
100.00	100.00	5	43	mm	100.00	1294	105	
Frame#	Time	LFHD			RFHD			LBHD			RBHD			C7			T10			CLAV			STRN			RBAK			LSHO			LUPA			LELB			LFRM			LWRA			LWRB			LFIN			RSHO			RUPA			RELB			RFRM			RWRA			RWRB			RFIN			LASI			RASI			LPSI			RPSI			LTHI			LKNE			LTIB			LANK			LHEE			LTOE			RTHI			RKNE			RTIB			RANK			RHEE			RTOE			*39			*40			*41			*42			
		X1	Y1	Z1	X2	Y2	Z2	X3	Y3	Z3	X4	Y4	Z4	X5	Y5	Z5	X6	Y6	Z6	X7	Y7	Z7	X8	Y8	Z8	X9	Y9	Z9	X10	Y10	Z10	X11	Y11	Z11	X12	Y12	Z12	X13	Y13	Z13	X14	Y14	Z14	X15	Y15	Z15	X16	Y16	Z16	X17	Y17	Z17	X18	Y18	Z18	X19	Y19	Z19	X20	Y20	Z20	X21	Y21	Z21	X22	Y22	Z22	X23	Y23	Z23	X24	Y24	Z24	X25	Y25	Z25	X26	Y26	Z26	X27	Y27	Z27	X28	Y28	Z28	X29	Y29	Z29	X30	Y30	Z30	X31	Y31	Z31	X32	Y32	Z32	X33	Y33	Z33	X34	Y34	Z34	X35	Y35	Z35	X36	Y36	Z36	X37	Y37	Z37	X38	Y38	Z38	X39	Y39	Z39	X40	Y40	Z40	X41	Y41	Z41	X42	Y42	Z42	X43	Y43	Z43	

53	0.520	1514.78503	385.41119	1657.58069	1384.29248	395.12961	1641.77734	1525.29211	519.31323	1605.76367	1397.76978	527.54529	1595.62769	1474.57813	524.61371	1442.56335	1464.49377	556.27252	1114.28784	1466.45691	413.37625	1367.24548	1474.93250	371.50516	1191.82190	1404.54114	599.62701	1270.93079	1631.01428	459.77173	1400.74182	1712.72314	435.33304	1204.19421	1732.99524	417.10876	1093.58398	1753.13318	331.64127	970.76862	1705.09180	226.89693	899.23389	1745.00940	275.38834	865.58246	1745.50195	199.10594	818.26892	1308.57288	473.51303	1396.21399	1228.02893	555.08704	1211.75305	1215.80383	573.85614	1090.66553	1196.07813	593.39496	972.01831	1219.31628	572.83319	819.58154	1185.23987	628.95721	838.26550	1179.69397	616.92688	754.36823	1575.60779	385.97467	951.23523	1356.39771	383.40060	958.35791	1542.53137	541.93011	984.33838	1374.61829	533.33521	980.92712	1629.53564	482.13998	642.59906	1607.41626	509.01431	480.09756	1604.09351	602.87469	239.17784	1563.22046	654.93896	74.40928	1522.34851	702.28668	65.40108	1552.24255	516.21393	39.14416	1293.19458	351.98575	637.29401	1322.45129	296.38721	525.27356	1322.01782	303.49509	263.57327	1361.59363	290.48306	78.13284	1410.98254	322.65030	50.48180	1350.75305	139.30223	52.06751	1460.76343	489.00668	1695.57776									 
54	0.530	1513.86072	370.48111	1655.40369	1383.31934	380.44650	1639.21716	1524.67407	504.43124	1603.83752	1397.10132	512.88629	1593.35620	1474.10730	510.21646	1440.39355	1464.00891	542.27576	1112.08777	1466.15112	398.87003	1365.05200	1475.02173	357.44315	1189.55054	1404.25232	585.37988	1268.72998	1630.64709	445.70572	1398.94092	1712.53296	419.74814	1202.83569	1732.98547	399.69775	1092.58337	1752.59692	310.20068	972.75110	1704.03918	203.00732	905.45959	1743.88855	250.07784	869.85626	1744.52356	171.88315	825.92535	1308.25012	459.11200	1393.95007	1228.03589	541.78107	1210.36780	1215.31140	561.92285	1089.48926	1195.58582	582.91815	970.90240	1218.20581	564.24847	818.10205	1184.36731	620.26263	837.73315	1178.72998	609.48145	753.68866	1575.36621	373.01141	948.99768	1356.34290	368.74213	956.10028	1541.51123	528.75256	982.07294	1373.53271	518.79742	978.82819	1628.89075	471.62485	640.75793	1607.00061	500.97592	478.55539	1603.61304	598.99445	239.23036	1563.07483	654.32623	75.48994	1522.23743	701.88788	67.05109	1552.11023	516.04919	39.18349	1292.34119	339.37332	634.37128	1321.60303	282.83594	522.76892	1319.64856	277.02512	261.90649	1358.38220	253.18144	77.33409	1407.55835	284.63672	48.88367	1349.14136	100.89336	55.40435	1459.86633	474.01819	1693.40881									 
55	0.540	1512.77698	355.61401	1653.14819	1382.26233	365.71625	1636.65576	1523.97876	489.56183	1601.88037	1396.38416	498.14288	1591.07581	1473.52795	495.78162	1438.26953	1463.52917	528.14026	1109.84448	1465.73511	384.46692	1362.76636	1474.99573	343.19449	1187.26868	1403.99500	571.07880	1266.40955	1630.09302	431.87338	1397.05457	1712.23694	404.09537	1201.50830	1732.82251	382.46680	1091.58826	1751.87012	289.18277	974.75635	1702.79346	179.76831	911.78082	1742.63513	225.36902	874.32495	1743.24390	145.49245	833.61597	1307.78674	444.62671	1391.62720	1227.73083	528.78772	1208.75330	1214.76587	549.90326	1088.10388	1194.77991	572.13324	969.89392	1217.06750	555.15723	816.76074	1183.28833	610.92468	837.11176	1177.65125	601.21893	752.76556	1575.38245	359.79858	946.67291	1356.24695	353.94357	953.78033	1540.40747	515.49207	979.70251	1372.38123	504.14310	976.71185	1628.34753	460.92877	639.02570	1606.60681	492.82211	477.16479	1603.12842	595.18292	239.53073	1562.87439	653.73383	76.93411	1521.92615	701.30420	69.11532	1552.03076	515.98853	39.09803	1291.30334	326.63358	631.29077	1320.57092	269.12115	520.34961	1317.39099	251.15446	260.76468	1355.42322	217.51790	77.61260	1404.26074	248.31963	48.15982	1347.69263	64.17080	60.11095	1458.85803	459.04999	1691.20361									 
56	0.550	1511.71045	340.57520	1650.98645	1381.14221	350.91629	1634.12195	1523.19348	474.68484	1599.89526	1395.56750	483.40833	1588.75842	1472.79663	481.26312	1436.10388	1462.99316	513.93408	1107.58044	1465.21545	369.96051	1360.52405	1474.86755	328.97421	1184.98108	1403.51245	556.67566	1264.04773	1629.45325	417.93832	1395.12317	1711.77612	388.45859	1200.07751	1732.35339	365.57318	1090.45679	1751.16565	268.55362	976.70941	1701.47217	157.17097	918.04468	1741.01855	201.16794	878.65393	1741.75317	119.98535	841.28094	1307.20618	429.99191	1389.23022	1227.34277	515.64465	1207.00232	1214.16528	537.59662	1086.59546	1193.86462	561.04541	968.62793	1215.70862	545.39038	815.27057	1182.21985	601.10126	836.27704	1176.46643	592.47058	751.71301	1575.49133	346.13474	944.50269	1356.27307	338.91165	951.49915	1539.20862	501.97607	977.25903	1371.17578	489.29428	974.47150	1627.84680	450.12924	637.51239	1606.28162	484.40091	475.99258	1602.64954	591.32422	240.27492	1562.56396	653.10767	78.79087	1521.53076	700.67395	71.71146	1551.95789	515.88635	39.02984	1290.04150	313.61682	628.23914	1319.17444	255.32986	517.86444	1315.40076	225.86015	260.16971	1353.12720	183.65453	78.60045	1401.92725	213.58522	47.45629	1346.44727	29.56223	66.34267	1457.77612	444.12793	1688.99243									 
57	0.560	1510.52783	325.64560	1648.83411	1379.95056	336.08484	1631.62500	1522.34436	459.78915	1597.93640	1394.62622	468.62607	1586.47119	1472.02600	466.65451	1433.99463	1462.42407	499.58817	1105.36353	1464.58923	355.52658	1358.23950	1474.56409	314.61713	1182.69397	1403.07593	542.19873	1261.73425	1628.77637	403.98740	1393.23059	1711.25391	372.85114	1198.58984	1731.72034	348.90305	1089.26990	1750.15881	248.60060	978.67572	1699.98621	135.33566	924.25183	1739.72559	177.84409	883.36633	1740.06458	95.29533	848.83582	1306.49487	415.31406	1386.84717	1226.86084	502.18326	1205.28040	1213.45874	525.02844	1084.98865	1192.92883	549.49432	967.30066	1214.15979	534.93030	813.69482	1181.08582	590.67700	835.26715	1175.32043	582.59857	750.70959	1575.56274	332.36246	942.39001	1356.26294	323.60315	949.34167	1538.09912	488.23822	974.86218	1369.96484	474.19470	972.21942	1627.44397	439.24643	636.31055	1606.02271	475.66046	475.06390	1602.20007	587.25275	241.26273	1562.19275	652.24609	80.97637	1521.06384	699.83124	74.85033	1552.11182	515.89667	39.01385	1288.24670	300.13535	625.57587	1317.33167	241.25357	515.34937	1313.28162	201.82906	259.70337	1351.17847	152.12088	79.95319	1399.78162	180.80405	47.38908	1345.17505	-2.73090	73.99247	1456.64465	429.19760	1686.80664									 
